<?xml version="1.0" encoding="UTF-8"?>
<svg xmlns="http://www.w3.org/2000/svg" xmlns:xlink="http://www.w3.org/1999/xlink" width="193pt" height="193pt" viewBox="0 0 193 193" version="1.1">
<g id="surface1">
<path style=" stroke:none;fill-rule:evenodd;fill:rgb(100%,100%,100%);fill-opacity:1;" d="M 0 0.242188 L 192.757813 0.242188 L 192.757813 193 L 0 193 L 0 0.242188 "/>
<path style=" stroke:none;fill-rule:evenodd;fill:rgb(14.898682%,25.498962%,60.398865%);fill-opacity:1;" d="M 8.503906 67.96875 L 184.253906 67.96875 L 184.253906 125.273438 L 8.503906 125.273438 L 8.503906 67.96875 "/>
<path style=" stroke:none;fill-rule:evenodd;fill:rgb(100%,100%,100%);fill-opacity:1;" d="M 157.621094 86.160156 L 160.035156 86.46875 C 159.773438 88.085938 159.101563 89.351563 158.007813 90.265625 C 156.921875 91.179688 155.585938 91.636719 154.003906 91.636719 C 152.023438 91.636719 150.429688 91.007813 149.226563 89.75 C 148.019531 88.492188 147.414063 86.6875 147.414063 84.332031 C 147.414063 82.808594 147.675781 81.480469 148.191406 80.339844 C 148.714844 79.199219 149.5 78.34375 150.5625 77.773438 C 151.617188 77.203125 152.773438 76.914063 154.019531 76.914063 C 155.59375 76.914063 156.882813 77.304688 157.878906 78.078125 C 158.878906 78.855469 159.523438 79.949219 159.808594 81.375 L 157.417969 81.734375 C 157.1875 80.785156 156.789063 80.074219 156.210938 79.597656 C 155.632813 79.121094 154.9375 78.882813 154.117188 78.882813 C 152.875 78.882813 151.871094 79.3125 151.097656 80.175781 C 150.324219 81.035156 149.9375 82.398438 149.9375 84.265625 C 149.9375 86.15625 150.3125 87.53125 151.0625 88.394531 C 151.808594 89.246094 152.777344 89.679688 153.980469 89.679688 C 154.945313 89.679688 155.746094 89.386719 156.390625 88.8125 C 157.039063 88.238281 157.449219 87.355469 157.621094 86.160156 "/>
<path style=" stroke:none;fill-rule:evenodd;fill:rgb(100%,100%,100%);fill-opacity:1;" d="M 143.410156 91.320313 L 143.410156 77.238281 L 145.867188 77.238281 L 145.867188 91.320313 L 143.410156 91.320313 "/>
<path style=" stroke:none;fill-rule:evenodd;fill:rgb(100%,100%,100%);fill-opacity:1;" d="M 143.410156 74.625 L 143.410156 71.878906 L 145.867188 71.878906 L 145.867188 74.625 L 143.410156 74.625 "/>
<path style=" stroke:none;fill-rule:evenodd;fill:rgb(100%,100%,100%);fill-opacity:1;" d="M 115.675781 91.320313 L 115.675781 77.238281 L 117.886719 77.238281 L 117.886719 79.238281 C 118.953125 77.691406 120.488281 76.914063 122.496094 76.914063 C 123.371094 76.914063 124.171875 77.070313 124.902344 77.375 C 125.640625 77.683594 126.183594 78.078125 126.546875 78.578125 C 126.914063 79.070313 127.167969 79.660156 127.3125 80.339844 C 127.402344 80.78125 127.449219 81.558594 127.449219 82.660156 L 127.449219 91.320313 L 124.988281 91.320313 L 124.988281 82.753906 C 124.988281 81.78125 124.898438 81.054688 124.707031 80.570313 C 124.515625 80.089844 124.175781 79.703125 123.691406 79.421875 C 123.203125 79.128906 122.636719 78.984375 121.980469 78.984375 C 120.929688 78.984375 120.03125 79.3125 119.269531 79.953125 C 118.511719 80.601563 118.132813 81.824219 118.132813 83.628906 L 118.132813 91.320313 L 115.675781 91.320313 "/>
<path style=" stroke:none;fill-rule:evenodd;fill:rgb(100%,100%,100%);fill-opacity:1;" d="M 100.441406 89.183594 L 100.78125 91.292969 C 100.117188 91.433594 99.519531 91.507813 98.996094 91.507813 C 98.132813 91.507813 97.46875 91.371094 96.992188 91.09375 C 96.523438 90.824219 96.191406 90.460938 95.996094 90.011719 C 95.804688 89.570313 95.707031 88.628906 95.707031 87.195313 L 95.707031 79.09375 L 93.96875 79.09375 L 93.96875 77.238281 L 95.707031 77.238281 L 95.707031 73.746094 L 98.0625 72.316406 L 98.0625 77.238281 L 100.441406 77.238281 L 100.441406 79.09375 L 98.0625 79.09375 L 98.0625 87.328125 C 98.0625 88.011719 98.101563 88.445313 98.183594 88.640625 C 98.269531 88.835938 98.402344 88.988281 98.589844 89.109375 C 98.78125 89.21875 99.050781 89.277344 99.402344 89.277344 C 99.664063 89.277344 100.007813 89.246094 100.441406 89.183594 "/>
<path style=" stroke:none;fill-rule:evenodd;fill:rgb(100%,100%,100%);fill-opacity:1;" d="M 80.191406 85.074219 L 82.261719 84.859375 C 82.355469 85.835938 82.585938 86.632813 82.941406 87.257813 C 83.300781 87.882813 83.855469 88.382813 84.609375 88.769531 C 85.359375 89.152344 86.210938 89.34375 87.152344 89.34375 C 87.988281 89.34375 88.722656 89.199219 89.363281 88.910156 C 90.003906 88.613281 90.484375 88.214844 90.796875 87.710938 C 91.105469 87.195313 91.265625 86.644531 91.265625 86.042969 C 91.265625 85.429688 91.113281 84.902344 90.808594 84.445313 C 90.511719 83.988281 90.011719 83.605469 89.324219 83.300781 C 88.875 83.09375 87.894531 82.777344 86.371094 82.347656 C 84.851563 81.917969 83.785156 81.515625 83.175781 81.136719 C 82.382813 80.652344 81.792969 80.042969 81.40625 79.324219 C 81.019531 78.605469 80.824219 77.796875 80.824219 76.902344 C 80.824219 75.925781 81.0625 75.007813 81.535156 74.15625 C 82.011719 73.300781 82.703125 72.652344 83.613281 72.207031 C 84.527344 71.769531 85.539063 71.546875 86.652344 71.546875 C 87.882813 71.546875 88.964844 71.777344 89.90625 72.246094 C 90.84375 72.707031 91.5625 73.390625 92.066406 74.289063 C 92.570313 75.191406 92.84375 76.214844 92.882813 77.355469 L 90.78125 77.539063 C 90.664063 76.3125 90.28125 75.382813 89.628906 74.757813 C 88.976563 74.128906 88.019531 73.816406 86.746094 73.816406 C 85.417969 73.816406 84.453125 74.101563 83.847656 74.671875 C 83.242188 75.242188 82.9375 75.929688 82.9375 76.730469 C 82.9375 77.433594 83.152344 78.007813 83.578125 78.453125 C 84.003906 78.90625 85.101563 79.371094 86.886719 79.839844 C 88.667969 80.316406 89.886719 80.726563 90.550781 81.082031 C 91.515625 81.605469 92.230469 82.265625 92.6875 83.0625 C 93.148438 83.863281 93.375 84.789063 93.375 85.828125 C 93.375 86.867188 93.125 87.839844 92.617188 88.753906 C 92.113281 89.667969 91.390625 90.378906 90.445313 90.890625 C 89.5 91.398438 88.433594 91.652344 87.253906 91.652344 C 85.753906 91.652344 84.496094 91.398438 83.488281 90.882813 C 82.472656 90.371094 81.679688 89.601563 81.101563 88.570313 C 80.527344 87.539063 80.21875 86.371094 80.191406 85.074219 "/>
<path style=" stroke:none;fill-rule:evenodd;fill:rgb(100%,100%,100%);fill-opacity:1;" d="M 128.898438 111.328125 L 131.230469 111.59375 C 130.976563 112.996094 130.324219 114.09375 129.273438 114.890625 C 128.222656 115.679688 126.929688 116.078125 125.398438 116.078125 C 123.484375 116.078125 121.941406 115.53125 120.78125 114.441406 C 119.613281 113.351563 119.027344 111.78125 119.027344 109.742188 C 119.027344 108.421875 119.277344 107.269531 119.78125 106.28125 C 120.285156 105.289063 121.046875 104.546875 122.070313 104.054688 C 123.09375 103.558594 124.210938 103.3125 125.414063 103.3125 C 126.933594 103.3125 128.183594 103.648438 129.148438 104.320313 C 130.113281 104.992188 130.734375 105.941406 131.011719 107.179688 L 128.699219 107.488281 C 128.480469 106.667969 128.09375 106.050781 127.53125 105.636719 C 126.976563 105.222656 126.300781 105.015625 125.507813 105.015625 C 124.3125 105.015625 123.335938 105.386719 122.589844 106.136719 C 121.839844 106.882813 121.46875 108.066406 121.46875 109.683594 C 121.46875 111.324219 121.828125 112.515625 122.554688 113.261719 C 123.273438 114.003906 124.214844 114.378906 125.378906 114.378906 C 126.308594 114.378906 127.082031 114.128906 127.710938 113.628906 C 128.335938 113.128906 128.730469 112.363281 128.898438 111.328125 "/>
<path style=" stroke:none;fill-rule:evenodd;fill:rgb(100%,100%,100%);fill-opacity:1;" d="M 113.761719 115.804688 L 113.761719 103.589844 L 116.140625 103.589844 L 116.140625 115.804688 L 113.761719 115.804688 "/>
<path style=" stroke:none;fill-rule:evenodd;fill:rgb(100%,100%,100%);fill-opacity:1;" d="M 113.761719 101.328125 L 113.761719 98.945313 L 116.140625 98.945313 L 116.140625 101.328125 L 113.761719 101.328125 "/>
<path style=" stroke:none;fill-rule:evenodd;fill:rgb(100%,100%,100%);fill-opacity:1;" d="M 104.730469 115.804688 L 104.730469 103.589844 L 106.863281 103.589844 L 106.863281 105.441406 C 107.410156 104.578125 107.914063 104.003906 108.378906 103.726563 C 108.835938 103.453125 109.347656 103.3125 109.902344 103.3125 C 110.699219 103.3125 111.511719 103.535156 112.339844 103.980469 L 111.519531 105.902344 C 110.945313 105.601563 110.363281 105.453125 109.785156 105.453125 C 109.257813 105.453125 108.796875 105.589844 108.382813 105.859375 C 107.964844 106.132813 107.675781 106.511719 107.5 106.996094 C 107.234375 107.726563 107.105469 108.535156 107.105469 109.410156 L 107.105469 115.804688 L 104.730469 115.804688 "/>
<path style=" stroke:none;fill-rule:evenodd;fill:rgb(100%,100%,100%);fill-opacity:1;" d="M 97.8125 115.804688 L 97.8125 105.199219 L 95.71875 105.199219 L 95.71875 103.589844 L 97.8125 103.589844 L 97.8125 102.292969 C 97.8125 101.472656 97.898438 100.859375 98.066406 100.460938 C 98.296875 99.925781 98.695313 99.488281 99.269531 99.15625 C 99.847656 98.820313 100.65625 98.65625 101.695313 98.65625 C 102.359375 98.65625 103.097656 98.722656 103.910156 98.863281 L 103.554688 100.671875 C 103.0625 100.59375 102.59375 100.550781 102.15625 100.550781 C 101.433594 100.550781 100.925781 100.6875 100.628906 100.957031 C 100.324219 101.222656 100.175781 101.726563 100.175781 102.464844 L 100.175781 103.589844 L 102.90625 103.589844 L 102.90625 105.199219 L 100.175781 105.199219 L 100.175781 115.804688 L 97.8125 115.804688 "/>
<path style=" stroke:none;fill-rule:evenodd;fill:rgb(100%,100%,100%);fill-opacity:1;" d="M 78.84375 115.804688 L 85.695313 98.945313 L 88.238281 98.945313 L 95.539063 115.804688 L 92.847656 115.804688 L 90.765625 110.695313 L 83.304688 110.695313 L 81.351563 115.804688 Z M 83.988281 108.878906 L 90.039063 108.878906 L 88.175781 104.210938 C 87.609375 102.792969 87.1875 101.628906 86.910156 100.714844 C 86.683594 101.796875 86.363281 102.867188 85.949219 103.9375 L 83.988281 108.878906 "/>
<path style=" stroke:none;fill-rule:evenodd;fill:rgb(100%,100%,100%);fill-opacity:1;" d="M 142.410156 114.296875 C 141.527344 114.949219 140.679688 115.40625 139.867188 115.675781 C 139.054688 115.945313 138.179688 116.078125 137.246094 116.078125 C 135.707031 116.078125 134.527344 115.753906 133.699219 115.097656 C 132.875 114.441406 132.460938 113.601563 132.460938 112.585938 C 132.460938 111.984375 132.613281 111.4375 132.929688 110.941406 C 133.238281 110.449219 133.648438 110.050781 134.152344 109.753906 C 134.664063 109.457031 135.230469 109.226563 135.863281 109.074219 C 136.328125 108.96875 137.03125 108.863281 137.972656 108.765625 C 139.890625 108.5625 141.304688 108.328125 142.210938 108.050781 C 142.21875 107.765625 142.222656 107.585938 142.222656 107.511719 C 142.222656 106.667969 142 106.070313 141.550781 105.730469 C 140.945313 105.257813 140.039063 105.027344 138.84375 105.027344 C 137.726563 105.027344 136.90625 105.195313 136.367188 105.539063 C 135.839844 105.878906 135.445313 106.484375 135.191406 107.351563 L 132.871094 107.074219 C 133.082031 106.210938 133.429688 105.507813 133.910156 104.976563 C 134.394531 104.441406 135.097656 104.03125 136.011719 103.742188 C 136.921875 103.457031 137.980469 103.3125 139.1875 103.3125 C 140.386719 103.3125 141.355469 103.4375 142.101563 103.679688 C 142.851563 103.929688 143.398438 104.234375 143.757813 104.605469 C 144.105469 104.980469 144.347656 105.449219 144.492188 106.015625 C 144.570313 106.371094 144.609375 107.007813 144.609375 107.925781 L 144.609375 110.683594 C 144.609375 112.609375 144.660156 113.828125 144.765625 114.335938 C 144.863281 114.84375 145.066406 115.335938 145.363281 115.804688 L 142.878906 115.804688 C 142.636719 115.375 142.476563 114.871094 142.410156 114.296875 Z M 142.210938 109.671875 C 141.34375 109.980469 140.050781 110.238281 138.335938 110.457031 C 137.355469 110.578125 136.660156 110.714844 136.261719 110.867188 C 135.855469 111.023438 135.539063 111.246094 135.324219 111.542969 C 135.105469 111.839844 134.992188 112.164063 134.992188 112.523438 C 134.992188 113.078125 135.234375 113.539063 135.710938 113.90625 C 136.191406 114.273438 136.894531 114.457031 137.8125 114.457031 C 138.726563 114.457031 139.546875 114.285156 140.257813 113.933594 C 140.96875 113.585938 141.496094 113.105469 141.828125 112.503906 C 142.085938 112.035156 142.210938 111.34375 142.210938 110.433594 L 142.210938 109.671875 "/>
<path style=" stroke:none;fill-rule:evenodd;fill:rgb(100%,100%,100%);fill-opacity:1;" d="M 111.488281 89.582031 C 110.609375 90.335938 109.765625 90.863281 108.957031 91.175781 C 108.144531 91.484375 107.273438 91.636719 106.34375 91.636719 C 104.808594 91.636719 103.632813 91.261719 102.808594 90.507813 C 101.984375 89.75 101.570313 88.78125 101.570313 87.609375 C 101.570313 86.914063 101.726563 86.285156 102.039063 85.714844 C 102.347656 85.144531 102.757813 84.6875 103.257813 84.34375 C 103.765625 84 104.335938 83.738281 104.964844 83.5625 C 105.429688 83.4375 106.128906 83.316406 107.066406 83.203125 C 108.980469 82.972656 110.390625 82.703125 111.289063 82.378906 C 111.300781 82.054688 111.304688 81.847656 111.304688 81.761719 C 111.304688 80.785156 111.078125 80.097656 110.632813 79.703125 C 110.03125 79.160156 109.128906 78.894531 107.9375 78.894531 C 106.824219 78.894531 106.003906 79.089844 105.46875 79.484375 C 104.941406 79.878906 104.546875 80.574219 104.292969 81.574219 L 101.980469 81.253906 C 102.191406 80.257813 102.535156 79.445313 103.019531 78.835938 C 103.5 78.21875 104.199219 77.746094 105.109375 77.414063 C 106.019531 77.082031 107.074219 76.914063 108.277344 76.914063 C 109.472656 76.914063 110.4375 77.0625 111.183594 77.34375 C 111.929688 77.628906 112.476563 77.980469 112.832031 78.410156 C 113.183594 78.839844 113.425781 79.378906 113.566406 80.035156 C 113.644531 80.441406 113.683594 81.175781 113.683594 82.234375 L 113.683594 85.417969 C 113.683594 87.640625 113.734375 89.042969 113.835938 89.628906 C 113.9375 90.214844 114.136719 90.78125 114.433594 91.320313 L 111.960938 91.320313 C 111.71875 90.828125 111.554688 90.246094 111.488281 89.582031 Z M 111.289063 84.25 C 110.429688 84.609375 109.140625 84.90625 107.425781 85.15625 C 106.453125 85.296875 105.761719 85.453125 105.363281 85.628906 C 104.957031 85.808594 104.640625 86.066406 104.429688 86.410156 C 104.207031 86.746094 104.09375 87.125 104.09375 87.539063 C 104.09375 88.179688 104.335938 88.710938 104.8125 89.132813 C 105.289063 89.554688 105.988281 89.769531 106.910156 89.769531 C 107.820313 89.769531 108.632813 89.570313 109.34375 89.164063 C 110.050781 88.761719 110.578125 88.210938 110.910156 87.515625 C 111.164063 86.976563 111.289063 86.179688 111.289063 85.128906 L 111.289063 84.25 "/>
<path style=" stroke:none;fill-rule:evenodd;fill:rgb(100%,100%,100%);fill-opacity:1;" d="M 131.324219 91.320313 L 129.046875 91.320313 L 129.046875 71.878906 L 131.5 71.878906 L 131.5 78.8125 C 132.539063 77.550781 133.859375 76.914063 135.46875 76.914063 C 136.359375 76.914063 137.203125 77.09375 138 77.441406 C 138.796875 77.789063 139.449219 78.28125 139.964844 78.914063 C 140.476563 79.546875 140.882813 80.308594 141.171875 81.203125 C 141.464844 82.09375 141.609375 83.050781 141.609375 84.0625 C 141.609375 86.480469 140.992188 88.347656 139.765625 89.664063 C 138.539063 90.980469 137.0625 91.636719 135.34375 91.636719 C 133.636719 91.636719 132.296875 90.945313 131.324219 89.554688 Z M 131.296875 84.171875 C 131.296875 85.859375 131.53125 87.078125 132.003906 87.832031 C 132.777344 89.0625 133.824219 89.679688 135.140625 89.679688 C 136.214844 89.679688 137.144531 89.226563 137.925781 88.316406 C 138.707031 87.410156 139.101563 86.0625 139.101563 84.265625 C 139.101563 82.425781 138.722656 81.066406 137.972656 80.191406 C 137.222656 79.320313 136.316406 78.882813 135.253906 78.882813 C 134.175781 78.882813 133.25 79.335938 132.46875 80.238281 C 131.683594 81.144531 131.296875 82.457031 131.296875 84.171875 "/>
<path style=" stroke:none;fill-rule:evenodd;fill:rgb(100%,100%,100%);fill-opacity:1;" d="M 24.699219 80.730469 C 24.699219 80.730469 24.386719 74.097656 31.652344 73.78125 C 38.914063 73.464844 55.023438 74.097656 55.023438 74.097656 C 55.023438 74.097656 60.078125 73.78125 60.394531 80.730469 C 60.710938 87.679688 60.078125 104.734375 60.078125 104.734375 C 60.078125 104.734375 60.394531 107.894531 57.550781 110.105469 C 54.707031 112.316406 50.917969 114.210938 50.917969 114.210938 L 49.101563 115.324219 L 39.863281 97.15625 C 39.863281 97.15625 43.96875 93.046875 47.445313 95.890625 C 50.917969 98.734375 55.972656 95.257813 55.972656 95.257813 L 55.972656 85.46875 C 55.972656 85.46875 49.65625 87.363281 47.128906 86.730469 C 44.601563 86.097656 40.496094 84.835938 38.28125 85.152344 C 36.074219 85.46875 34.492188 86.097656 34.492188 86.097656 C 34.492188 86.097656 34.175781 83.886719 31.964844 81.675781 C 29.753906 79.464844 29.121094 81.363281 29.121094 83.257813 C 29.121094 85.152344 30.703125 87.046875 30.703125 87.046875 L 46 117.207031 L 46.074219 117.160156 L 46.078125 117.171875 L 45.230469 117.683594 C 45.230469 117.683594 43.335938 119.582031 38.28125 117.054688 C 33.230469 114.527344 26.597656 109.472656 25.964844 109.15625 C 25.332031 108.84375 25.019531 106.945313 25.019531 99.679688 C 25.019531 92.417969 24.699219 80.730469 24.699219 80.730469 Z M 55.339844 78.203125 L 36.386719 78.203125 C 36.386719 78.203125 34.492188 80.414063 38.914063 80.730469 C 43.335938 81.046875 42.707031 81.046875 46.8125 82.308594 C 50.917969 83.574219 53.445313 83.257813 55.023438 81.363281 C 56.601563 79.464844 55.339844 78.203125 55.339844 78.203125 Z M 52.8125 108.210938 C 52.8125 108.210938 50.601563 108.84375 48.707031 106 C 46.8125 103.15625 46.8125 102.839844 46.8125 102.839844 C 46.8125 102.839844 46.496094 101.261719 49.65625 101.261719 C 52.8125 101.261719 55.339844 101.261719 55.339844 101.261719 C 55.339844 101.261719 56.289063 102.839844 55.339844 104.734375 C 54.394531 106.632813 52.8125 108.210938 52.8125 108.210938 Z M 29.121094 93.363281 L 29.121094 102.523438 C 29.121094 102.523438 28.492188 104.734375 31.652344 107.261719 C 34.808594 109.789063 37.335938 111.054688 37.335938 111.054688 C 37.335938 111.054688 40.179688 112.632813 37.019531 107.894531 C 33.859375 103.15625 29.121094 93.363281 29.121094 93.363281 "/>
</g>
</svg>
